<svg width="175" height="137" viewBox="0 0 175 137" fill="none" xmlns="http://www.w3.org/2000/svg">
<path d="M75.343 136C51.2777 136.862 31.1853 127.489 13.9987 106.586C4.22368 94.6976 1.99714 77.8224 11.4698 65.6917C12.9654 63.7764 15.3133 61.7523 17.392 60.4937C22.2478 57.5537 27.0142 56.1708 37.843 56C56.6799 55.9955 69.4632 75.7896 87.9788 79.2543C91.0836 79.8353 94.4862 80.213 98.343 80.5C106.287 81.1251 111.01 80.0735 117.917 73.8181C119.565 72.3254 121.112 70.3172 121.822 68.2099C124.168 61.2472 117.182 55.6521 110.837 51.9474C105.646 48.9163 102.752 46.0586 100.569 43.0091C98.9588 40.7587 97.8167 38.2104 96.9496 35.5824C92.9487 23.457 93.9769 16.3587 101.843 2C107.517 30.6354 149.249 39.9847 171.843 21.5C177.261 36.2382 169.241 46.7145 164.764 50.2198C163.306 51.3607 161.423 51.6013 159.575 51.709C155.54 51.9441 147.902 52.1229 142.176 50.6642C140.105 50.1366 138.115 50.2813 136.376 51.5241C134.31 53.0015 132.974 55.744 133.694 58.1801C135.76 65.1733 136.22 70.4542 135.936 78.3182C135.884 79.7696 135.702 81.2304 135.402 82.6516C128.093 117.336 115.033 129.63 75.343 136Z" fill="#00B8E3" stroke="#00B8E3"/>
<circle cx="84.343" cy="99.5" r="7.5" fill="black"/>
<path d="M39.6254 109.486C40.7741 111.632 41.9044 113.553 43.3825 115.845C45.5975 119.279 49.0166 122.273 52.5902 124.255C54.3177 125.213 55.7946 125.797 57.6993 126.32C63.8684 128.015 67.2865 128.344 75.3428 128.5C87.4351 128.397 98.787 123.778 109.603 118.37L110.343 118L124.343 108.5C121.035 112.8 116.999 116.486 112.417 119.392L108.101 122.129C101.975 126.013 95.2217 128.805 88.141 130.378C80.3474 132.11 72.2946 132.336 64.4161 131.045L58.6139 130.094C50.1777 128.711 42.0838 125.727 34.7683 121.304C27.8744 117.135 21.5656 111.929 16.7841 105.446C15.0148 103.047 13.4545 100.636 12.0274 97.7675C10.8056 95.3119 10.1158 92.6321 9.73758 89.9154C9.31664 86.8915 9.04924 84.376 8.9227 81.6517C8.76854 78.333 10.2471 74.6762 12.8004 72.5506C16.3848 69.5665 21.3755 70.4064 24.4539 73.9102C25.8874 75.5418 27.3369 77.5254 28.9935 80.1084C31.6314 84.2216 32.834 89.1127 34.1218 93.8264C34.5023 95.2191 34.9268 96.6375 35.3351 98.0392C36.4765 101.958 37.6995 105.887 39.6254 109.486Z" fill="white"/>
</svg>
